<svg width="303" height="172" viewBox="0 0 303 172" fill="none" xmlns="http://www.w3.org/2000/svg">
<path d="M152.578 133H144V69.4263C144 57.276 153.85 47.4263 166 47.4263H193.14C205.29 47.4263 215.14 57.276 215.14 69.4262V118C215.14 126.284 208.424 133 200.14 133H190.716C189.612 133 188.716 132.104 188.716 131V78.1306C188.716 72.2933 183.984 67.5612 178.147 67.5612C172.31 67.5612 167.578 72.2933 167.578 78.1305V118C167.578 126.284 160.862 133 152.578 133Z" fill="#FF9033"/>
<path d="M104.88 133H95C93.8954 133 93 132.104 93 131V69.4263C93 57.276 102.85 47.4263 115 47.4263H146.264C158.414 47.4263 168.264 57.276 168.264 69.4262V118C168.264 126.284 161.548 133 153.264 133H143.384C142.279 133 141.384 132.104 141.384 131V78.3132C141.384 72.3751 136.57 67.5612 130.632 67.5612C124.694 67.5612 119.88 72.375 119.88 78.3132V118C119.88 126.284 113.164 133 104.88 133Z" fill="#00B1FF"/>
<path d="M131.515 40.2069C135.474 40.1261 139.322 38.8777 142.574 36.6185C145.827 34.3592 148.339 31.1896 149.797 27.5074C151.255 23.8253 151.593 19.7945 150.769 15.9209C149.945 12.0474 147.995 8.50348 145.164 5.73395C142.334 2.96443 138.748 1.09262 134.857 0.353379C130.967 -0.385858 126.945 0.040406 123.296 1.57869C119.646 3.11697 116.533 5.69875 114.345 9.00008C112.158 12.3014 110.994 16.1753 111 20.1356C111.018 22.8039 111.564 25.4423 112.607 27.8985C113.649 30.3547 115.168 32.58 117.075 34.4461C118.983 36.3122 121.241 37.782 123.719 38.7708C126.197 39.7595 128.847 40.2476 131.515 40.2069Z" fill="#00B1FF"/>
<path d="M179.515 40.2069C183.474 40.1261 187.322 38.8777 190.574 36.6185C193.827 34.3592 196.339 31.1896 197.797 27.5074C199.255 23.8253 199.593 19.7945 198.769 15.9209C197.945 12.0474 195.995 8.50348 193.164 5.73395C190.334 2.96443 186.748 1.09262 182.857 0.353379C178.967 -0.385858 174.945 0.040406 171.296 1.57869C167.646 3.11697 164.533 5.69875 162.345 9.00008C160.158 12.3014 158.994 16.1753 159 20.1356C159.018 22.8039 159.564 25.4423 160.607 27.8985C161.649 30.3547 163.168 32.58 165.075 34.4461C166.983 36.3122 169.241 37.782 171.719 38.7708C174.197 39.7595 176.847 40.2476 179.515 40.2069Z" fill="#FF9033"/>
<path d="M85 24C86.1046 24 87 24.8954 87 26V118.946C87 127.23 80.2843 133.946 72 133.946H66.7612C65.6566 133.946 64.7612 133.051 64.7612 131.946V123.693C61.681 127.162 57.8475 129.888 53.5513 131.665C49.2552 133.441 44.609 134.221 39.9649 133.946C32.8194 134.038 25.7673 132.325 19.4681 128.967C13.4542 125.676 8.50489 120.752 5.19819 114.767C1.643 108.188 -0.144384 100.807 0.00915637 93.3386C-0.144708 85.882 1.64288 78.5126 5.19819 71.9469C8.50423 65.9526 13.4528 61.0157 19.4681 57.7104C25.7673 54.3527 32.8194 52.6396 39.9649 52.7313C44.3906 52.486 48.817 53.2 52.9383 54.8238C57.0595 56.4476 60.7773 58.9426 63.8346 62.1362V39C63.8346 30.7157 70.5503 24 78.8346 24H85ZM43.8937 115.173C46.6033 115.255 49.3006 114.776 51.8144 113.767C54.3283 112.757 56.604 111.239 58.4972 109.309C60.4765 107.159 62.0095 104.642 63.0081 101.901C64.0067 99.1607 64.4514 96.2507 64.3164 93.3386C64.4669 90.4473 64.029 87.5554 63.0291 84.8366C62.0292 82.1177 60.4877 79.6278 58.4972 77.5161C54.614 73.6671 49.3562 71.5059 43.8752 71.5059C38.3941 71.5059 33.1364 73.6671 29.2532 77.5161C27.2627 79.6278 25.7213 82.1177 24.7213 84.8366C23.7214 87.5554 23.2835 90.4473 23.434 93.3386C23.299 96.2507 23.7437 99.1607 24.7423 101.901C25.741 104.642 27.2739 107.159 29.2532 109.309C31.1548 111.238 33.4372 112.756 35.9569 113.765C38.4765 114.774 41.1788 115.254 43.8937 115.173Z" fill="#4E627A"/>
<path d="M258.631 133.987C250.935 133.997 243.267 133.192 235.792 131.59C232.872 130.987 230.01 130.2 227.229 129.237C221.985 127.421 220.138 121.255 222.763 116.366L226.152 110.054C226.672 109.085 227.875 108.721 228.863 109.204C233.134 111.29 237.681 112.918 242.405 114.049C248.073 115.42 253.925 116.124 259.805 116.142C271.333 116.142 277.206 113.669 277.206 108.532C277.17 107.362 276.688 106.236 275.837 105.333C274.986 104.43 273.814 103.802 272.508 103.548C267.795 102.255 262.94 101.401 258.022 100.999C251.6 100.216 245.248 99.0468 239.011 97.498C234.037 96.2205 229.536 93.8188 225.961 90.5349C222.098 86.6074 220.146 81.5131 220.523 76.3425C220.427 71.4313 222.219 66.6342 225.613 62.7208C229.507 58.4336 234.688 55.1794 240.578 53.3226C248.086 50.99 256.016 49.8684 263.982 50.0123C270.615 50.0082 277.228 50.6721 283.688 51.9909C286.643 52.4521 289.541 53.1357 292.351 54.0316C296.671 55.4089 298.257 60.4432 296.105 64.4341L291.908 72.2163C291.399 73.161 290.236 73.5317 289.256 73.0931C281.446 69.5959 272.775 67.7958 263.982 67.8575C259.498 67.6354 255.021 68.3665 250.931 69.9882C249.691 70.4414 248.624 71.1934 247.853 72.1567C247.083 73.1201 246.642 74.255 246.581 75.4293C246.518 76.655 246.931 77.8632 247.752 78.8578C248.574 79.8524 249.755 80.575 251.105 80.9084C255.996 82.265 261.02 83.2204 266.113 83.7621C272.478 84.6809 278.769 85.9517 284.95 87.5671C289.747 88.719 294.094 90.9951 297.522 94.1496C301.358 97.9851 303.312 102.989 302.959 108.076C303.026 112.95 301.167 117.694 297.696 121.507C293.692 125.792 288.383 128.998 282.383 130.753C274.742 133.037 266.703 134.132 258.631 133.987Z" fill="#4E627A"/>
<path d="M0 158.932C0 157.702 0.252365 156.613 0.756935 155.666C1.27645 154.718 1.97392 153.985 2.84964 153.466C3.74015 152.933 4.72719 152.666 5.8106 152.666C6.61206 152.666 7.39872 152.844 8.17045 153.199C8.95712 153.541 9.58048 153.999 10.0405 154.577V148.667H12.6008V165.109H10.0405V163.265C9.62501 163.857 9.04618 164.346 8.30403 164.731C7.57683 165.117 6.73816 165.309 5.78833 165.309C4.71972 165.309 3.74015 165.042 2.84964 164.509C1.97392 163.962 1.27645 163.206 0.756935 162.243C0.252365 161.265 0 160.162 0 158.932ZM10.0405 158.976C10.0405 158.132 9.86242 157.399 9.50622 156.777C9.1648 156.155 8.71223 155.68 8.14819 155.355C7.58414 155.029 6.97573 154.866 6.32264 154.866C5.66954 154.866 5.06113 155.029 4.49709 155.355C3.93304 155.666 3.473 156.132 3.11679 156.755C2.77538 157.362 2.60475 158.088 2.60475 158.932C2.60475 159.776 2.77538 160.518 3.11679 161.154C3.473 161.79 3.93304 162.279 4.49709 162.621C5.07592 162.946 5.68449 163.109 6.32264 163.109C6.97573 163.109 7.58414 162.946 8.14819 162.621C8.71223 162.295 9.1648 161.821 9.50622 161.198C9.86242 160.562 10.0405 159.821 10.0405 158.976ZM27.177 158.688C27.177 159.146 27.1473 159.562 27.088 159.932H17.7153C17.7894 160.91 18.1531 161.695 18.8062 162.287C19.4591 162.879 20.2606 163.176 21.2106 163.176C22.5759 163.176 23.5407 162.606 24.1047 161.465H26.8431C26.4719 162.59 25.7967 163.517 24.8171 164.243C23.8524 164.954 22.6502 165.309 21.2106 165.309C20.038 165.309 18.9843 165.05 18.0493 164.531C17.129 163.998 16.4018 163.257 15.8675 162.309C15.348 161.346 15.0883 160.235 15.0883 158.976C15.0883 157.718 15.3405 156.613 15.8452 155.666C16.3646 154.702 17.0845 153.963 18.0047 153.444C18.9398 152.925 20.0084 152.666 21.2106 152.666C22.3682 152.666 23.3996 152.918 24.3051 153.422C25.2104 153.925 25.9153 154.636 26.4201 155.555C26.9246 156.458 27.177 157.502 27.177 158.688ZM24.5277 157.888C24.5128 156.954 24.1788 156.207 23.5259 155.644C22.8728 155.08 22.0639 154.799 21.0993 154.799C20.2235 154.799 19.4741 155.08 18.8507 155.644C18.2274 156.191 17.8562 156.94 17.7376 157.888H24.5277ZM32.2125 148.667V165.109H29.6746V148.667H32.2125ZM36.8359 151.244C36.3758 151.244 35.9899 151.089 35.6782 150.777C35.3665 150.466 35.2107 150.081 35.2107 149.622C35.2107 149.163 35.3665 148.778 35.6782 148.467C35.9899 148.156 36.3758 148 36.8359 148C37.2811 148 37.6596 148.156 37.9713 148.467C38.283 148.778 38.4388 149.163 38.4388 149.622C38.4388 150.081 38.283 150.466 37.9713 150.777C37.6596 151.089 37.2811 151.244 36.8359 151.244ZM38.0826 152.866V165.109H35.5446V152.866H38.0826ZM46.1567 162.843L49.6297 152.866H52.3235L47.6483 165.109H44.6206L39.9676 152.866H42.6837L46.1567 162.843ZM65.4846 158.688C65.4846 159.146 65.455 159.562 65.3956 159.932H56.0229C56.0972 160.91 56.4609 161.695 57.1138 162.287C57.7669 162.879 58.5684 163.176 59.5182 163.176C60.8837 163.176 61.8485 162.606 62.4124 161.465H65.1507C64.7797 162.59 64.1043 163.517 63.1248 164.243C62.1602 164.954 60.958 165.309 59.5182 165.309C58.3457 165.309 57.2919 165.05 56.3569 164.531C55.4368 163.998 54.7094 163.257 54.1751 162.309C53.6558 161.346 53.3959 160.235 53.3959 158.976C53.3959 157.718 53.6483 156.613 54.1529 155.666C54.6724 154.702 55.3923 153.963 56.3123 153.444C57.2474 152.925 58.316 152.666 59.5182 152.666C60.6759 152.666 61.7074 152.918 62.6127 153.422C63.5182 153.925 64.2231 154.636 64.7277 155.555C65.2324 156.458 65.4846 157.502 65.4846 158.688ZM62.8353 157.888C62.8206 156.954 62.4866 156.207 61.8335 155.644C61.1806 155.08 60.3717 154.799 59.4069 154.799C58.5313 154.799 57.7817 155.08 57.1583 155.644C56.535 156.191 56.164 156.94 56.0452 157.888H62.8353ZM70.5203 154.644C70.8913 154.022 71.3811 153.541 71.9897 153.199C72.613 152.844 73.3477 152.666 74.1937 152.666V155.288H73.5481C72.5535 155.288 71.7966 155.54 71.2772 156.043C70.7725 156.547 70.5203 157.421 70.5203 158.665V165.109H67.9824V152.866H70.5203V154.644ZM97.1589 152.666C98.1237 152.666 98.9844 152.866 99.7414 153.266C100.513 153.666 101.114 154.258 101.545 155.044C101.99 155.829 102.213 156.777 102.213 157.888V165.109H99.6968V158.265C99.6968 157.169 99.4222 156.332 98.8731 155.755C98.324 155.163 97.5744 154.866 96.6246 154.866C95.6747 154.866 94.9178 155.163 94.3538 155.755C93.8047 156.332 93.53 157.169 93.53 158.265V165.109H91.0144V158.265C91.0144 157.169 90.7397 156.332 90.1906 155.755C89.6415 155.163 88.8919 154.866 87.9421 154.866C86.9923 154.866 86.2353 155.163 85.6713 155.755C85.1222 156.332 84.8475 157.169 84.8475 158.265V165.109H82.3096V152.866H84.8475V154.266C85.2631 153.763 85.7901 153.369 86.4282 153.088C87.0664 152.807 87.7492 152.666 88.4764 152.666C89.456 152.666 90.3317 152.874 91.1034 153.288C91.8751 153.703 92.4689 154.302 92.8844 155.088C93.2554 154.347 93.8342 153.763 94.6209 153.333C95.4076 152.888 96.2536 152.666 97.1589 152.666ZM104.596 158.932C104.596 157.702 104.848 156.613 105.353 155.666C105.873 154.718 106.57 153.985 107.446 153.466C108.336 152.933 109.316 152.666 110.384 152.666C111.349 152.666 112.187 152.858 112.899 153.244C113.628 153.614 114.207 154.08 114.636 154.644V152.866H117.196V165.109H114.636V163.287C114.207 163.865 113.62 164.346 112.877 164.731C112.136 165.117 111.29 165.309 110.34 165.309C109.286 165.309 108.321 165.042 107.446 164.509C106.57 163.962 105.873 163.206 105.353 162.243C104.848 161.265 104.596 160.162 104.596 158.932ZM114.636 158.976C114.636 158.132 114.458 157.399 114.102 156.777C113.761 156.155 113.308 155.68 112.744 155.355C112.181 155.029 111.572 154.866 110.918 154.866C110.266 154.866 109.657 155.029 109.093 155.355C108.529 155.666 108.069 156.132 107.713 156.755C107.371 157.362 107.201 158.088 107.201 158.932C107.201 159.776 107.371 160.518 107.713 161.154C108.069 161.79 108.529 162.279 109.093 162.621C109.672 162.946 110.281 163.109 110.918 163.109C111.572 163.109 112.181 162.946 112.744 162.621C113.308 162.295 113.761 161.821 114.102 161.198C114.458 160.562 114.636 159.821 114.636 158.976ZM123.069 154.644C123.439 154.022 123.929 153.541 124.538 153.199C125.162 152.844 125.896 152.666 126.742 152.666V155.288H126.097C125.101 155.288 124.344 155.54 123.826 156.043C123.32 156.547 123.069 157.421 123.069 158.665V165.109H120.531V152.866H123.069V154.644ZM133.928 158.999L139.583 165.109H136.155L131.613 159.843V165.109H129.075V148.667H131.613V158.221L136.066 152.866H139.583L133.928 158.999ZM152.645 158.688C152.645 159.146 152.615 159.562 152.556 159.932H143.183C143.256 160.91 143.621 161.695 144.274 162.287C144.926 162.879 145.728 163.176 146.679 163.176C148.043 163.176 149.008 162.606 149.573 161.465H152.311C151.939 162.59 151.265 163.517 150.285 164.243C149.32 164.954 148.118 165.309 146.679 165.309C145.505 165.309 144.452 165.05 143.517 164.531C142.596 163.998 141.87 163.257 141.335 162.309C140.815 161.346 140.556 160.235 140.556 158.976C140.556 157.718 140.808 156.613 141.313 155.666C141.832 154.702 142.552 153.963 143.473 153.444C144.408 152.925 145.476 152.666 146.679 152.666C147.836 152.666 148.867 152.918 149.773 153.422C150.678 153.925 151.382 154.636 151.888 155.555C152.392 156.458 152.645 157.502 152.645 158.688ZM149.996 157.888C149.98 156.954 149.646 156.207 148.994 155.644C148.34 155.08 147.531 154.799 146.567 154.799C145.691 154.799 144.942 155.08 144.319 155.644C143.695 156.191 143.323 156.94 143.206 157.888H149.996ZM158.103 154.933V161.709C158.103 162.168 158.207 162.501 158.414 162.709C158.637 162.901 159.009 162.998 159.527 162.998H161.086V165.109H159.082C157.94 165.109 157.064 164.842 156.455 164.309C155.848 163.776 155.542 162.909 155.542 161.709V154.933H154.095V152.866H155.542V149.822H158.103V152.866H161.086V154.933H158.103ZM164.716 151.244C164.257 151.244 163.87 151.089 163.558 150.777C163.247 150.466 163.091 150.081 163.091 149.622C163.091 149.163 163.247 148.778 163.558 148.467C163.87 148.156 164.257 148 164.716 148C165.161 148 165.54 148.156 165.852 148.467C166.163 148.778 166.319 149.163 166.319 149.622C166.319 150.081 166.163 150.466 165.852 150.777C165.54 151.089 165.161 151.244 164.716 151.244ZM165.963 152.866V165.109H163.425V152.866H165.963ZM175.485 152.666C176.449 152.666 177.311 152.866 178.067 153.266C178.839 153.666 179.44 154.258 179.871 155.044C180.3 155.829 180.516 156.777 180.516 157.888V165.109H178.001V158.265C178.001 157.169 177.726 156.332 177.177 155.755C176.627 155.163 175.878 154.866 174.928 154.866C173.977 154.866 173.221 155.163 172.658 155.755C172.107 156.332 171.834 157.169 171.834 158.265V165.109H169.296V152.866H171.834V154.266C172.249 153.763 172.775 153.369 173.415 153.088C174.067 152.807 174.757 152.666 175.485 152.666ZM188.695 152.666C189.646 152.666 190.484 152.858 191.211 153.244C191.953 153.614 192.532 154.08 192.947 154.644V152.866H195.507V165.309C195.507 166.434 195.27 167.434 194.795 168.309C194.321 169.198 193.631 169.894 192.724 170.397C191.834 170.9 190.765 171.153 189.519 171.153C187.857 171.153 186.476 170.761 185.378 169.975C184.28 169.205 183.657 168.153 183.508 166.82H186.023C186.217 167.456 186.624 167.967 187.248 168.353C187.887 168.753 188.644 168.953 189.519 168.953C190.543 168.953 191.366 168.642 191.99 168.02C192.629 167.398 192.947 166.495 192.947 165.309V163.265C192.518 163.843 191.931 164.331 191.188 164.731C190.462 165.117 189.63 165.309 188.695 165.309C187.626 165.309 186.647 165.042 185.756 164.509C184.881 163.962 184.183 163.206 183.663 162.243C183.159 161.265 182.906 160.162 182.906 158.932C182.906 157.702 183.159 156.613 183.663 155.666C184.183 154.718 184.881 153.985 185.756 153.466C186.647 152.933 187.626 152.666 188.695 152.666ZM192.947 158.976C192.947 158.132 192.769 157.399 192.413 156.777C192.072 156.155 191.619 155.68 191.055 155.355C190.492 155.029 189.883 154.866 189.229 154.866C188.577 154.866 187.968 155.029 187.404 155.355C186.841 155.666 186.379 156.132 186.023 156.755C185.683 157.362 185.511 158.088 185.511 158.932C185.511 159.776 185.683 160.518 186.023 161.154C186.379 161.79 186.841 162.279 187.404 162.621C187.982 162.946 188.591 163.109 189.229 163.109C189.883 163.109 190.492 162.946 191.055 162.621C191.619 162.295 192.072 161.821 192.413 161.198C192.769 160.562 192.947 159.821 192.947 158.976ZM209.076 165.309C208.113 165.309 207.244 165.139 206.472 164.798C205.715 164.443 205.114 163.968 204.668 163.376C204.223 162.768 203.986 162.095 203.956 161.354H206.583C206.627 161.873 206.872 162.309 207.318 162.665C207.779 163.006 208.35 163.176 209.032 163.176C209.744 163.176 210.294 163.043 210.679 162.776C211.08 162.495 211.28 162.14 211.28 161.709C211.28 161.251 211.058 160.91 210.613 160.687C210.183 160.465 209.493 160.221 208.542 159.954C207.623 159.702 206.872 159.457 206.294 159.221C205.715 158.984 205.211 158.621 204.78 158.132C204.365 157.643 204.156 156.999 204.156 156.199C204.156 155.547 204.35 154.955 204.735 154.421C205.122 153.874 205.67 153.444 206.383 153.133C207.111 152.822 207.941 152.666 208.876 152.666C210.272 152.666 211.392 153.022 212.238 153.733C213.1 154.429 213.559 155.385 213.618 156.599H211.08C211.036 156.051 210.813 155.613 210.412 155.288C210.011 154.963 209.471 154.799 208.787 154.799C208.119 154.799 207.607 154.925 207.251 155.177C206.895 155.429 206.717 155.763 206.717 156.177C206.717 156.502 206.836 156.777 207.073 156.999C207.311 157.221 207.601 157.399 207.941 157.532C208.283 157.651 208.787 157.807 209.455 157.999C210.345 158.235 211.074 158.48 211.637 158.732C212.215 158.969 212.713 159.324 213.128 159.799C213.545 160.273 213.76 160.902 213.774 161.687C213.774 162.384 213.581 163.006 213.195 163.554C212.81 164.101 212.26 164.531 211.548 164.842C210.851 165.154 210.027 165.309 209.076 165.309ZM221.838 165.309C220.68 165.309 219.634 165.05 218.699 164.531C217.764 163.998 217.029 163.257 216.495 162.309C215.96 161.346 215.693 160.235 215.693 158.976C215.693 157.732 215.968 156.629 216.517 155.666C217.066 154.702 217.816 153.963 218.765 153.444C219.715 152.925 220.777 152.666 221.949 152.666C223.121 152.666 224.183 152.925 225.133 153.444C226.082 153.963 226.833 154.702 227.381 155.666C227.93 156.629 228.205 157.732 228.205 158.976C228.205 160.221 227.923 161.324 227.359 162.287C226.794 163.251 226.023 163.998 225.044 164.531C224.078 165.05 223.01 165.309 221.838 165.309ZM221.838 163.109C222.491 163.109 223.099 162.954 223.663 162.643C224.242 162.332 224.71 161.865 225.066 161.243C225.422 160.621 225.6 159.865 225.6 158.976C225.6 158.088 225.43 157.34 225.088 156.732C224.746 156.11 224.295 155.644 223.73 155.332C223.166 155.021 222.558 154.866 221.905 154.866C221.251 154.866 220.644 155.021 220.079 155.332C219.53 155.644 219.091 156.11 218.765 156.732C218.439 157.34 218.276 158.088 218.276 158.976C218.276 160.295 218.61 161.317 219.278 162.043C219.96 162.754 220.814 163.109 221.838 163.109ZM233.252 148.667V165.109H230.714V148.667H233.252ZM247.693 152.866V165.109H245.155V163.665C244.754 164.168 244.228 164.568 243.574 164.865C242.937 165.146 242.253 165.287 241.526 165.287C240.561 165.287 239.693 165.087 238.921 164.687C238.164 164.287 237.563 163.695 237.118 162.909C236.687 162.124 236.472 161.176 236.472 160.065V152.866H238.988V159.688C238.988 160.784 239.263 161.629 239.812 162.221C240.36 162.798 241.111 163.087 242.06 163.087C243.01 163.087 243.76 162.798 244.309 162.221C244.873 161.629 245.155 160.784 245.155 159.688V152.866H247.693ZM254.003 154.933V161.709C254.003 162.168 254.106 162.501 254.314 162.709C254.537 162.901 254.908 162.998 255.428 162.998H256.986V165.109H254.982C253.839 165.109 252.964 164.842 252.355 164.309C251.746 163.776 251.443 162.909 251.443 161.709V154.933H249.995V152.866H251.443V149.822H254.003V152.866H256.986V154.933H254.003ZM260.616 151.244C260.157 151.244 259.77 151.089 259.459 150.777C259.147 150.466 258.991 150.081 258.991 149.622C258.991 149.163 259.147 148.778 259.459 148.467C259.77 148.156 260.157 148 260.616 148C261.062 148 261.44 148.156 261.752 148.467C262.063 148.778 262.219 149.163 262.219 149.622C262.219 150.081 262.063 150.466 261.752 150.777C261.44 151.089 261.062 151.244 260.616 151.244ZM261.863 152.866V165.109H259.325V152.866H261.863ZM270.515 165.309C269.358 165.309 268.311 165.05 267.376 164.531C266.441 163.998 265.707 163.257 265.172 162.309C264.638 161.346 264.371 160.235 264.371 158.976C264.371 157.732 264.646 156.629 265.195 155.666C265.745 154.702 266.494 153.963 267.443 153.444C268.394 152.925 269.455 152.666 270.627 152.666C271.8 152.666 272.861 152.925 273.81 153.444C274.761 153.963 275.51 154.702 276.059 155.666C276.609 156.629 276.883 157.732 276.883 158.976C276.883 160.221 276.601 161.324 276.037 162.287C275.474 163.251 274.701 163.998 273.721 164.531C272.758 165.05 271.689 165.309 270.515 165.309ZM270.515 163.109C271.169 163.109 271.778 162.954 272.341 162.643C272.92 162.332 273.387 161.865 273.743 161.243C274.1 160.621 274.278 159.865 274.278 158.976C274.278 158.088 274.108 157.34 273.766 156.732C273.425 156.11 272.972 155.644 272.408 155.332C271.845 155.021 271.236 154.866 270.582 154.866C269.93 154.866 269.321 155.021 268.757 155.332C268.208 155.644 267.771 156.11 267.443 156.732C267.117 157.34 266.953 158.088 266.953 158.976C266.953 160.295 267.287 161.317 267.955 162.043C268.639 162.754 269.491 163.109 270.515 163.109ZM285.581 152.666C286.546 152.666 287.406 152.866 288.163 153.266C288.935 153.666 289.536 154.258 289.967 155.044C290.398 155.829 290.612 156.777 290.612 157.888V165.109H288.097V158.265C288.097 157.169 287.822 156.332 287.273 155.755C286.724 155.163 285.974 154.866 285.024 154.866C284.075 154.866 283.318 155.163 282.754 155.755C282.205 156.332 281.93 157.169 281.93 158.265V165.109H279.392V152.866H281.93V154.266C282.345 153.763 282.873 153.369 283.51 153.088C284.164 152.807 284.854 152.666 285.581 152.666ZM298.303 165.309C297.337 165.309 296.469 165.139 295.698 164.798C294.941 164.443 294.34 163.968 293.895 163.376C293.449 162.768 293.212 162.095 293.182 161.354H295.809C295.854 161.873 296.099 162.309 296.544 162.665C297.003 163.006 297.576 163.176 298.258 163.176C298.97 163.176 299.519 163.043 299.905 162.776C300.306 162.495 300.507 162.14 300.507 161.709C300.507 161.251 300.284 160.91 299.839 160.687C299.408 160.465 298.718 160.221 297.768 159.954C296.848 159.702 296.099 159.457 295.52 159.221C294.941 158.984 294.437 158.621 294.006 158.132C293.591 157.643 293.382 156.999 293.382 156.199C293.382 155.547 293.575 154.955 293.961 154.421C294.348 153.874 294.896 153.444 295.609 153.133C296.335 152.822 297.167 152.666 298.102 152.666C299.497 152.666 300.618 153.022 301.464 153.733C302.324 154.429 302.785 155.385 302.844 156.599H300.306C300.262 156.051 300.039 155.613 299.638 155.288C299.238 154.963 298.695 154.799 298.013 154.799C297.345 154.799 296.833 154.925 296.477 155.177C296.121 155.429 295.943 155.763 295.943 156.177C295.943 156.502 296.062 156.777 296.299 156.999C296.536 157.221 296.825 157.399 297.167 157.532C297.509 157.651 298.013 157.807 298.681 157.999C299.572 158.235 300.298 158.48 300.863 158.732C301.442 158.969 301.939 159.324 302.354 159.799C302.769 160.273 302.986 160.902 303 161.687C303 162.384 302.808 163.006 302.421 163.554C302.035 164.101 301.486 164.531 300.774 164.842C300.076 165.154 299.252 165.309 298.303 165.309Z" fill="#4E627A"/>
</svg>
